<svg xmlns="http://www.w3.org/2000/svg" xmlns:xlink="http://www.w3.org/1999/xlink" width="500" zoomAndPan="magnify" viewBox="0 0 375 374.999991" height="500" preserveAspectRatio="xMidYMid meet" version="1.2"><defs><clipPath id="b508bc110e"><path d="M 38 9 L 338 9 L 338 365.925781 L 38 365.925781 Z M 38 9 "/></clipPath><clipPath id="e515441309"><path d="M 38 9 L 338 9 L 338 365.925781 L 38 365.925781 Z M 38 9 "/></clipPath></defs><g id="835b998ce1"><g clip-rule="nonzero" clip-path="url(#b508bc110e)"><path style=" stroke:none;fill-rule:nonzero;fill:#000000;fill-opacity:1;" d="M 334.132812 276.386719 C 310.757812 257.0625 287.585938 237.46875 264.332031 218 C 251.664062 207.398438 238.945312 196.859375 226.265625 186.273438 C 220.371094 181.347656 213.851562 177.074219 208.273438 171.917969 C 195.179688 159.820312 181.28125 148.71875 167.515625 137.4375 C 153.882812 125.789062 140.289062 114.082031 126.585938 102.515625 C 118.09375 95.351562 109.640625 88.140625 100.566406 81.695312 C 98.507812 80.21875 96.035156 77.976562 99.894531 75.871094 C 108.203125 71.351562 115.78125 65.648438 124.28125 61.421875 C 136.902344 55.144531 150.289062 51.367188 163.957031 48.40625 C 172.8125 47.226562 181.71875 46.800781 190.625 47.273438 C 228.472656 49.285156 261.261719 62.394531 286.660156 91.453125 C 291.15625 96.597656 295.457031 101.894531 299.734375 107.21875 C 305.945312 114.957031 310.636719 115.578125 318.152344 109.449219 C 320.976562 107.136719 323.777344 104.796875 326.570312 102.445312 C 334.21875 96 334.828125 90.578125 328.933594 82.523438 C 315.191406 63.734375 298.832031 47.980469 278.695312 35.882812 C 263.640625 26.828125 248.035156 19.6875 231.054688 15.414062 C 230.613281 15.339844 230.164062 15.265625 229.726562 15.191406 C 227.253906 14.609375 224.78125 14.035156 222.296875 13.449219 C 221.992188 13.074219 221.625 13 221.210938 13.230469 C 216.375 11.902344 211.441406 11.113281 206.421875 10.964844 C 205.558594 11.855469 204.800781 11.683594 204.121094 10.746094 C 203.023438 10.648438 201.914062 10.550781 200.820312 10.453125 C 200.296875 10.378906 199.757812 10.320312 199.234375 10.246094 C 189.941406 9.492188 180.660156 9.394531 171.375 10.453125 C 170.023438 9.90625 168.769531 10.136719 167.601562 10.941406 C 166.40625 11.074219 165.226562 11.210938 164.03125 11.34375 C 162.824219 11.292969 161.605469 11.0625 160.4375 11.234375 C 120.324219 17.179688 86.203125 34.835938 58.003906 63.90625 C 47.050781 75.1875 47.894531 85.863281 60.050781 96.046875 C 80.648438 113.324219 101.136719 130.710938 121.785156 147.914062 C 135.308594 159.1875 148.351562 171.042969 162.570312 181.472656 C 177.078125 193.824219 191.523438 206.242188 206.09375 218.523438 C 231.492188 239.917969 256.9375 261.253906 282.410156 282.5625 C 284.738281 284.511719 286.089844 285.851562 283.054688 288.617188 C 265.90625 304.277344 246.765625 316.289062 224.230469 322.757812 C 207.203125 327.65625 189.890625 328.132812 172.425781 327.535156 C 170.242188 327.097656 168.085938 326.511719 165.882812 326.242188 C 141.566406 323.332031 119.640625 314.121094 100.347656 299.425781 C 88.601562 290.484375 78.832031 279.1875 70.441406 266.90625 C 68.273438 263.726562 65.714844 261.363281 61.804688 260.816406 C 53.375 259.621094 36.992188 275.570312 38.171875 283.941406 C 38.414062 285.683594 39.160156 287.472656 40.097656 288.972656 C 42.035156 292.054688 44.152344 295.050781 46.394531 297.925781 C 64.640625 321.234375 87.46875 338.828125 114.367188 350.90625 C 132.773438 359.164062 152.082031 364.515625 172.484375 364.855469 C 174.09375 364.929688 175.699219 365.015625 177.308594 365.085938 C 182.144531 365.953125 186.992188 365.902344 191.828125 365.125 C 228.09375 364.320312 260.910156 353.21875 290.242188 331.910156 C 308.175781 318.882812 322.574219 302.496094 335.375 284.550781 C 338.078125 280.84375 337.484375 279.164062 334.132812 276.386719 Z M 334.132812 276.386719 "/></g><path style=" stroke:none;fill-rule:nonzero;fill:#000000;fill-opacity:1;" d="M 52.375 230.9375 C 46.441406 213.199219 44.359375 194.972656 45.710938 176.316406 C 46.015625 172.089844 46.746094 169.945312 51.242188 173.5625 C 59.027344 179.824219 66.699219 186.273438 74.386719 192.582031 C 82.390625 199.148438 89.957031 206.425781 98.226562 212.796875 C 103.609375 217.402344 108.957031 222.042969 114.378906 226.613281 C 134.976562 244.011719 155.566406 261.410156 176.210938 278.738281 C 183.679688 285 188.015625 284.902344 195.484375 278.664062 C 203.265625 272.171875 210.894531 265.480469 218.921875 259.304688 C 223.246094 255.988281 223.097656 253.078125 220.101562 249.179688 C 215.984375 243.828125 211.015625 239.394531 205.949219 235.007812 C 197.847656 227.976562 197.578125 227.953125 189.234375 234.8125 C 187.527344 236.214844 186.1875 237.980469 183.59375 235.847656 C 171.253906 225.722656 158.914062 215.585938 146.648438 205.402344 C 132.554688 193.714844 118.714844 181.703125 104.5625 170.066406 C 96.921875 161.890625 87.726562 155.519531 79.246094 148.316406 C 65.910156 136.988281 52.386719 125.851562 38.964844 114.617188 C 34.90625 111.21875 30.828125 111.339844 26.78125 114.445312 C 23.46875 116.992188 21.628906 120.5625 20.070312 124.398438 C 13.238281 141.300781 9.507812 158.871094 8.535156 177.035156 C 7.058594 204.597656 11.066406 231.242188 22.152344 256.648438 C 25.308594 263.871094 30.265625 265.03125 36.734375 260.316406 C 40.011719 257.925781 43.140625 255.332031 46.285156 252.761719 C 54.582031 246.011719 55.796875 241.171875 52.375 230.9375 Z M 52.375 230.9375 "/><path style=" stroke:none;fill-rule:nonzero;fill:#000000;fill-opacity:1;" d="M 357.4375 140.875 C 355.121094 132.355469 353.453125 123.425781 347.945312 116.089844 C 343.550781 110.230469 339.503906 108.9375 335.460938 112.3125 C 322.730469 122.988281 310.148438 133.832031 297.503906 144.613281 C 297.550781 144.722656 297.613281 144.832031 297.675781 144.941406 C 297.613281 144.832031 297.5625 144.722656 297.503906 144.613281 C 283.214844 156.492188 268.863281 168.3125 254.660156 180.300781 C 250.179688 184.078125 251.566406 188.5 254.855469 192.082031 C 261.726562 199.566406 270.714844 203.035156 280.582031 204.425781 C 282.421875 204.683594 284.226562 204.292969 285.710938 203 C 291.363281 198.101562 297.027344 193.214844 302.691406 188.320312 C 308.480469 183.554688 314.242188 178.753906 320.074219 174.0625 C 321.414062 172.992188 322.5625 170.75 324.570312 171.6875 C 326.105469 172.40625 325.8125 174.5625 325.910156 176.132812 C 327.09375 195.335938 325.167969 214.222656 318.773438 232.414062 C 312.925781 249.03125 312.902344 249.582031 328.980469 257.671875 C 330.953125 258.671875 333.050781 259.570312 335.179688 260.070312 C 343.453125 261.996094 349.507812 258.621094 352.332031 250.675781 C 365.246094 214.601562 367.535156 177.972656 357.4375 140.875 Z M 299.550781 148.257812 C 299.648438 148.476562 299.746094 148.683594 299.832031 148.890625 C 299.746094 148.683594 299.660156 148.476562 299.550781 148.257812 C 299.453125 148.039062 299.332031 147.832031 299.207031 147.609375 C 299.34375 147.832031 299.453125 148.050781 299.550781 148.257812 Z M 298.84375 146.953125 C 298.515625 146.40625 298.171875 145.832031 297.867188 145.285156 C 298.171875 145.832031 298.515625 146.394531 298.84375 146.953125 Z M 298.84375 146.953125 "/><g clip-rule="nonzero" clip-path="url(#e515441309)"><path style=" stroke:none;fill-rule:nonzero;fill:#000000;fill-opacity:1;" d="M 334.132812 276.386719 C 310.757812 257.0625 287.585938 237.46875 264.332031 218 C 251.664062 207.398438 238.945312 196.859375 226.265625 186.273438 C 220.371094 181.347656 213.851562 177.074219 208.273438 171.917969 C 195.179688 159.820312 181.28125 148.71875 167.515625 137.4375 C 153.882812 125.789062 140.289062 114.082031 126.585938 102.515625 C 118.09375 95.351562 109.640625 88.140625 100.566406 81.695312 C 98.507812 80.21875 96.035156 77.976562 99.894531 75.871094 C 108.203125 71.351562 115.78125 65.648438 124.28125 61.421875 C 136.902344 55.144531 150.289062 51.367188 163.957031 48.40625 C 172.8125 47.226562 181.71875 46.800781 190.625 47.273438 C 228.472656 49.285156 261.261719 62.394531 286.660156 91.453125 C 291.15625 96.597656 295.457031 101.894531 299.734375 107.21875 C 305.945312 114.957031 310.636719 115.578125 318.152344 109.449219 C 320.976562 107.136719 323.777344 104.796875 326.570312 102.445312 C 334.21875 96 334.828125 90.578125 328.933594 82.523438 C 315.191406 63.734375 298.832031 47.980469 278.695312 35.882812 C 263.640625 26.828125 248.035156 19.6875 231.054688 15.414062 C 230.613281 15.339844 230.164062 15.265625 229.726562 15.191406 C 227.253906 14.609375 224.78125 14.035156 222.296875 13.449219 C 221.992188 13.074219 221.625 13 221.210938 13.230469 C 216.375 11.902344 211.441406 11.113281 206.421875 10.964844 C 205.558594 11.855469 204.800781 11.683594 204.121094 10.746094 C 203.023438 10.648438 201.914062 10.550781 200.820312 10.453125 C 200.296875 10.378906 199.757812 10.320312 199.234375 10.246094 C 189.941406 9.492188 180.660156 9.394531 171.375 10.453125 C 170.023438 9.90625 168.769531 10.136719 167.601562 10.941406 C 166.40625 11.074219 165.226562 11.210938 164.03125 11.34375 C 162.824219 11.292969 161.605469 11.0625 160.4375 11.234375 C 120.324219 17.179688 86.203125 34.835938 58.003906 63.90625 C 47.050781 75.1875 47.894531 85.863281 60.050781 96.046875 C 80.648438 113.324219 101.136719 130.710938 121.785156 147.914062 C 135.308594 159.1875 148.351562 171.042969 162.570312 181.472656 C 177.078125 193.824219 191.523438 206.242188 206.09375 218.523438 C 231.492188 239.917969 256.9375 261.253906 282.410156 282.5625 C 284.738281 284.511719 286.089844 285.851562 283.054688 288.617188 C 265.90625 304.277344 246.765625 316.289062 224.230469 322.757812 C 207.203125 327.65625 189.890625 328.132812 172.425781 327.535156 C 170.242188 327.097656 168.085938 326.511719 165.882812 326.242188 C 141.566406 323.332031 119.640625 314.121094 100.347656 299.425781 C 88.601562 290.484375 78.832031 279.1875 70.441406 266.90625 C 68.273438 263.726562 65.714844 261.363281 61.804688 260.816406 C 53.375 259.621094 36.992188 275.570312 38.171875 283.941406 C 38.414062 285.683594 39.160156 287.472656 40.097656 288.972656 C 42.035156 292.054688 44.152344 295.050781 46.394531 297.925781 C 64.640625 321.234375 87.46875 338.828125 114.367188 350.90625 C 132.773438 359.164062 152.082031 364.515625 172.484375 364.855469 C 174.09375 364.929688 175.699219 365.015625 177.308594 365.085938 C 182.144531 365.953125 186.992188 365.902344 191.828125 365.125 C 228.09375 364.320312 260.910156 353.21875 290.242188 331.910156 C 308.175781 318.882812 322.574219 302.496094 335.375 284.550781 C 338.078125 280.84375 337.484375 279.164062 334.132812 276.386719 Z M 334.132812 276.386719 "/></g><path style=" stroke:none;fill-rule:nonzero;fill:#000000;fill-opacity:1;" d="M 52.375 230.9375 C 46.441406 213.199219 44.359375 194.972656 45.710938 176.316406 C 46.015625 172.089844 46.746094 169.945312 51.242188 173.5625 C 59.027344 179.824219 66.699219 186.273438 74.386719 192.582031 C 82.390625 199.148438 89.957031 206.425781 98.226562 212.796875 C 103.609375 217.402344 108.957031 222.042969 114.378906 226.613281 C 134.976562 244.011719 155.566406 261.410156 176.210938 278.738281 C 183.679688 285 188.015625 284.902344 195.484375 278.664062 C 203.265625 272.171875 210.894531 265.480469 218.921875 259.304688 C 223.246094 255.988281 223.097656 253.078125 220.101562 249.179688 C 215.984375 243.828125 211.015625 239.394531 205.949219 235.007812 C 197.847656 227.976562 197.578125 227.953125 189.234375 234.8125 C 187.527344 236.214844 186.1875 237.980469 183.59375 235.847656 C 171.253906 225.722656 158.914062 215.585938 146.648438 205.402344 C 132.554688 193.714844 118.714844 181.703125 104.5625 170.066406 C 96.921875 161.890625 87.726562 155.519531 79.246094 148.316406 C 65.910156 136.988281 52.386719 125.851562 38.964844 114.617188 C 34.90625 111.21875 30.828125 111.339844 26.78125 114.445312 C 23.46875 116.992188 21.628906 120.5625 20.070312 124.398438 C 13.238281 141.300781 9.507812 158.871094 8.535156 177.035156 C 7.058594 204.597656 11.066406 231.242188 22.152344 256.648438 C 25.308594 263.871094 30.265625 265.03125 36.734375 260.316406 C 40.011719 257.925781 43.140625 255.332031 46.285156 252.761719 C 54.582031 246.011719 55.796875 241.171875 52.375 230.9375 Z M 52.375 230.9375 "/><path style=" stroke:none;fill-rule:nonzero;fill:#000000;fill-opacity:1;" d="M 357.4375 140.875 C 355.121094 132.355469 353.453125 123.425781 347.945312 116.089844 C 343.550781 110.230469 339.503906 108.9375 335.460938 112.3125 C 322.730469 122.988281 310.148438 133.832031 297.503906 144.613281 C 297.550781 144.722656 297.613281 144.832031 297.675781 144.941406 C 297.613281 144.832031 297.5625 144.722656 297.503906 144.613281 C 283.214844 156.492188 268.863281 168.3125 254.660156 180.300781 C 250.179688 184.078125 251.566406 188.5 254.855469 192.082031 C 261.726562 199.566406 270.714844 203.035156 280.582031 204.425781 C 282.421875 204.683594 284.226562 204.292969 285.710938 203 C 291.363281 198.101562 297.027344 193.214844 302.691406 188.320312 C 308.480469 183.554688 314.242188 178.753906 320.074219 174.0625 C 321.414062 172.992188 322.5625 170.75 324.570312 171.6875 C 326.105469 172.40625 325.8125 174.5625 325.910156 176.132812 C 327.09375 195.335938 325.167969 214.222656 318.773438 232.414062 C 312.925781 249.03125 312.902344 249.582031 328.980469 257.671875 C 330.953125 258.671875 333.050781 259.570312 335.179688 260.070312 C 343.453125 261.996094 349.507812 258.621094 352.332031 250.675781 C 365.246094 214.601562 367.535156 177.972656 357.4375 140.875 Z M 299.550781 148.257812 C 299.648438 148.476562 299.746094 148.683594 299.832031 148.890625 C 299.746094 148.683594 299.660156 148.476562 299.550781 148.257812 C 299.453125 148.039062 299.332031 147.832031 299.207031 147.609375 C 299.34375 147.832031 299.453125 148.050781 299.550781 148.257812 Z M 298.84375 146.953125 C 298.515625 146.40625 298.171875 145.832031 297.867188 145.285156 C 298.171875 145.832031 298.515625 146.394531 298.84375 146.953125 Z M 298.84375 146.953125 "/></g></svg>